<mxfile host="app.diagrams.net" modified="2024-05-06T18:17:44.244Z" agent="Mozilla/5.0 (Windows NT 10.0; Win64; x64; rv:125.0) Gecko/20100101 Firefox/125.0" version="24.3.1" etag="jullJEg9iDYllzjSqmu5" type="github">
  <diagram name="PÃ¡gina-1" id="r8Bym1CDumFta1KJsMCV">
    <mxGraphModel>
      <root>
        <mxCell id="0" />
        <mxCell id="1" parent="0" />
      </root>
    </mxGraphModel>
  </diagram>
</mxfile>
